# xmcd CD database file
#
# Track frame offsets:
#	182
#	21482
#	46897
#	73190
#	92265
#	112807
#	133502
#	152770
#	173280
#
# Disc length: 2630 seconds
#
# Revision: 0
# Processed by: cddbd v1.5.2PL0 Copyright (c) Steve Scherf et al.
# Submitted via: CDex 1.70beta2
#
DISCID=650a4409
DTITLE=Metheny, Pat, Group - We Live Here (Radio Edits-PromoCD)
DYEAR=1995
DGENRE=Jazz
TTITLE0=Here To Stay (Short Edit)
TTITLE1=Something To Remind You
TTITLE2=Red Sky
TTITLE3=We Live Here
TTITLE4=To The End Of The World
TTITLE5=Stranger In Town
TTITLE6=And Then I Knew
TTITLE7=The Girl Next Door
TTITLE8=Here To Stay (Main Edit Version)
EXTD=YEAR: 1995
EXTT0=
EXTT1=
EXTT2=
EXTT3=
EXTT4=
EXTT5=
EXTT6=
EXTT7=
EXTT8=
PLAYORDER=
